<?xml version="1.0" encoding="UTF-8"?>
<svg id="_πœ_h_1" data-name="πœºh_1" xmlns="http://www.w3.org/2000/svg" viewBox="0 0 463.87 140.9">
  <defs>
    <style>
      .cls-1 {
        fill: #ed1c2e;
      }

      .cls-1, .cls-2 {
        stroke-width: 0px;
      }

      .cls-2 {
        fill: #231f20;
      }
    </style>
  </defs>
  <g>
    <g>
      <path class="cls-1" d="M49.56,46.36c0-.87-.38-1.71-1.05-2.36-.89-.85-2.26-1.31-3.64-1.24-2.18.1-3.95,1.78-3.95,3.76v1.48c0,6.91-4.99,11.2-13.04,11.2-7.61,0-13.35-4.82-13.35-11.2v-27.94c0-6.38,5.74-11.19,13.35-11.19,8.54,0,14.06,4.39,14.06,11.19v1.63c0,1.93,1.68,3.45,3.82,3.45s3.8-1.52,3.8-3.45v-1.63C49.56,9,38.45,0,24.79,0S0,9,0,20.06v27.94c0,11.06,11.12,20.06,24.79,20.06s24.77-9,24.77-20.06v-1.64Z"/>
      <path class="cls-1" d="M84.88,26.15c-2.32,0-4.22,1.09-4.95,2.84,0-.03-6.24,13.87-6.24,13.87-.19.48-.84,1.13-1.43,1.13-.27,0-.6,0-1.26-1.27,0-.03-6.69-12.36-6.69-12.36-1.79-3.63-4.46-4.14-7.07-4.14-2.94,0-5.52,1.28-6.75,3.34-.91,1.52-.95,3.29-.11,4.84.02.03,9.79,16.81,9.79,16.81,3.29,5.68,4.21,10.33,2.8,14.23-1.52,4.22-5.81,7.58-13.1,10.28l-2.67.98c-2.18.77-3.33,2.75-2.77,4.82.72,2.62,4.14,3.65,6.75,2.94h0s2.46-.64,2.46-.64c12.15-3.27,20.19-10.31,23.91-20.95l11.11-32.07c.33-1.1.13-2.25-.53-3.14-.72-.96-1.87-1.49-3.23-1.49Z"/>
      <path class="cls-1" d="M115.21,25.98c-3.92,0-7.2,1.48-9.14,2.61V6.99c0-4.83-3.62-6.99-7.2-6.99-4.58,0-7.31,2.61-7.31,6.99v57.54c0,2.38,1.42,3.86,3.7,3.86,1.29,0,2.19-.66,2.78-1.09l.33-.24c.07-.04,3.17-2.53,4.65-3.71,3.16,3.3,7.23,5.05,12.19,5.05,9.1,0,17.71-7.19,17.71-14.79v-12.82c0-7.6-8.61-14.79-17.71-14.79ZM118.4,42.5v11.1c0,3.47-4.13,5.6-7.09,5.6-1.66,0-7.08-.41-7.08-5.6v-12.82c0-4.88,4.89-5.61,7.81-5.61,4.19,0,6.37,3.69,6.37,7.33Z"/>
      <path class="cls-1" d="M156.83,26.31c-10.05.09-20.46,5.52-20.46,14.46v12.82c0,8.65,11.37,14.46,22,14.46h5.35c3.5,0,4.74-1.73,4.74-3.36s-1.24-3.35-4.74-3.35h-5.35c-4.81,0-8.41-4.09-8.41-7.75v-3.7c0-.23,0-.76,1.32-.76h19.32c4.06,0,7.11-2.24,7.11-5.23v-3.21c0-3.2-1.26-6.14-3.64-8.51-3.77-3.73-10.21-5.93-17.24-5.87ZM163.1,38.96v1.07c0,.47-.13,1.25-1.03,1.25h-9.76c-.79,0-1.32-.47-1.32-.92v-1.32s.06-4.54,5.85-4.54c4.94,0,6.25,2.79,6.25,4.45Z"/>
      <path class="cls-1" d="M208.63,26.31h-2.66c-3.23,0-7.2,2-10.38,5.2,0,0-.82.83-1.44,1.48-1.29-1.03-6.7-5.36-6.7-5.36-.65-.53-1.73-1.4-3.27-1.4-2.43,0-3.51,1.81-3.51,3.61v32.14c0,3.36,3.28,6.08,7.31,6.08s7.3-2.72,7.3-6.08v-21.39c.58-.46,1.93-1.55,1.93-1.55,1.76-1.41,4.5-2.22,7.52-2.22h3.9c3.41,0,6.29-2.4,6.29-5.24s-2.88-5.25-6.29-5.25Z"/>
    </g>
    <path class="cls-2" d="M236.38,66.92h-17.52V10.52h23.02c5.51,0,11.67.17,16.53,2.96,5.25,3.13,8.39,8.71,8.39,14.8,0,5.34-2.06,10.44-6.24,13.81-4.37,3.54-9.95,4.36-15.39,4.36h-8.79v20.47h0M240.89,34.35c3.96,0,8.73-.24,8.73-5.5s-4.27-5.44-8.22-5.44h-5.01v10.93h4.51Z"/>
    <path class="cls-2" d="M310.94,46.28c0,12.74-10.27,21.45-23.09,21.45s-23.11-8.71-23.11-21.45c0-13.49,9.94-22.2,23.11-22.2s23.09,8.71,23.09,22.2h0M282.17,45.7c0,11.26,2.72,12.09,5.69,12.09s5.67-.83,5.67-12.09c0-4.03-.1-11.35-5.67-11.35s-5.69,7.31-5.69,11.35h0Z"/>
    <polygon class="cls-2" points="356.74 66.92 344.89 66.92 339.46 44.14 339.3 44.14 333.64 66.92 321.97 66.92 308.39 24.91 324.58 24.91 330.02 45.46 330.18 45.46 335.35 24.91 347.53 24.91 352.8 45.46 358.62 24.91 370.06 24.91 356.74 66.92 356.74 66.92 356.74 66.92"/>
    <path class="cls-2" d="M413.04,52.86c-2.56,10.19-11.59,14.87-21.54,14.87-6.17,0-12.17-1.31-16.93-5.5-4.53-4.03-6.92-9.78-6.92-15.78,0-5.67,2.22-11.84,6.17-15.88,4.27-4.43,10.69-6.49,16.67-6.49,13.99,0,22.55,9.05,22.55,22.86v2.22h-28.13c-.23,4.51,1.41,7.8,6.35,7.8,3.69,0,5.75-1.48,6.4-5.1l15.38.99h0M396.6,40.94c0-4.12-1.33-7.24-5.92-7.24-4.28,0-6,3.38-5.84,7.24h11.76Z"/>
    <path class="cls-2" d="M430.7,33.55c1.39-5.85,4.44-9.96,10.94-9.46l2.23.18v14.7c-1-.24-2.07-.4-3.13-.4-2.63,0-5.34.49-6.65,2.88-1.14,2.05-1.14,4.76-1.14,7.23v18.25h-16.28V24.91h13.89v8.64h.16Z"/>
    <path class="cls-2" d="M457.93,15.15l1.91,5.34,1.93-5.34h2.12v7.47h-1.38v-6.02l-2.06,6.02h-1.21l-2.06-6.02v6.02h-1.37v-7.47h2.14M448.17,16.39v-1.24h6.36v1.24h-2.44v6.23h-1.48v-6.23h-2.43Z"/>
  </g>
  <g>
    <path class="cls-2" d="M96.23,91.01v-11.37h-4.25v-1.53h10.22v1.53h-4.25v11.37h-1.72Z"/>
    <path class="cls-2" d="M104.01,91.01v-12.91h1.72v5.28h6.69v-5.28h1.72v12.91h-1.72v-6.09h-6.69v6.09h-1.72Z"/>
    <path class="cls-2" d="M117,91.01v-12.91h9.28v1.53h-7.56v3.94h7.09v1.53h-7.09v4.38h7.87v1.53h-9.59Z"/>
    <path class="cls-2" d="M133.95,91.01v-12.91h4.86c.86,0,1.51.04,1.96.12.63.11,1.16.31,1.59.6.43.3.77.71,1.03,1.25.26.53.39,1.12.39,1.76,0,1.1-.35,2.03-1.05,2.79-.7.76-1.96,1.14-3.78,1.14h-3.3v5.25h-1.72ZM135.67,84.23h3.33c1.1,0,1.88-.2,2.35-.61.46-.41.69-.98.69-1.73,0-.54-.14-1-.41-1.38-.27-.38-.63-.63-1.08-.76-.29-.08-.82-.11-1.59-.11h-3.3v4.59Z"/>
    <path class="cls-2" d="M145.42,84.73c0-2.14.58-3.82,1.73-5.03,1.15-1.21,2.64-1.82,4.45-1.82,1.19,0,2.27.28,3.22.85.96.57,1.69,1.36,2.19,2.38.5,1.02.75,2.17.75,3.46s-.26,2.48-.79,3.51c-.53,1.03-1.28,1.81-2.25,2.34-.97.53-2.01.8-3.13.8-1.21,0-2.3-.29-3.26-.88-.96-.59-1.68-1.39-2.17-2.4-.49-1.02-.74-2.09-.74-3.22ZM147.17,84.75c0,1.55.42,2.78,1.26,3.67.84.89,1.89,1.34,3.16,1.34s2.35-.45,3.18-1.35c.83-.9,1.25-2.18,1.25-3.84,0-1.05-.18-1.96-.53-2.75-.36-.78-.88-1.39-1.56-1.82-.69-.43-1.45-.65-2.31-.65-1.21,0-2.25.42-3.13,1.24-.87.83-1.31,2.21-1.31,4.15Z"/>
    <path class="cls-2" d="M162.17,91.01l-3.37-12.91h1.78l1.93,8.47c.22.88.41,1.76.56,2.63.33-1.37.53-2.16.59-2.37l2.46-8.73h2.06l1.83,6.54c.46,1.62.79,3.14,1,4.56.17-.81.39-1.74.64-2.8l2.03-8.3h1.71l-3.53,12.91h-1.68l-2.68-9.83c-.22-.82-.36-1.33-.41-1.52-.15.61-.28,1.12-.39,1.54l-2.73,9.81h-1.81Z"/>
    <path class="cls-2" d="M177.01,91.01v-12.91h9.28v1.53h-7.56v3.94h7.09v1.53h-7.09v4.38h7.87v1.53h-9.59Z"/>
    <path class="cls-2" d="M189.01,91.01v-12.91h5.71c1.14,0,2.01.12,2.61.35.6.23,1.07.64,1.43,1.23.36.59.53,1.24.53,1.95,0,.92-.29,1.69-.88,2.32-.59.63-1.5,1.03-2.73,1.2.45.22.79.43,1.03.64.5.45.97,1.03,1.41,1.71l2.22,3.5h-2.13l-1.7-2.67c-.5-.77-.9-1.36-1.23-1.77-.32-.41-.61-.7-.86-.86-.25-.17-.51-.28-.77-.35-.19-.04-.51-.06-.95-.06h-1.97v5.72h-1.72ZM190.73,83.82h3.65c.78,0,1.38-.08,1.82-.24.44-.16.77-.42,1-.78.23-.36.34-.74.34-1.16,0-.61-.22-1.12-.66-1.51-.44-.39-1.14-.59-2.09-.59h-4.06v4.28Z"/>
    <path class="cls-2" d="M210.23,91.01v-11.37h-4.25v-1.53h10.22v1.53h-4.25v11.37h-1.72Z"/>
    <path class="cls-2" d="M217.09,84.73c0-2.14.58-3.82,1.73-5.03,1.15-1.21,2.63-1.82,4.46-1.82,1.19,0,2.26.28,3.22.85.96.57,1.69,1.36,2.19,2.38.5,1.02.75,2.17.75,3.46s-.26,2.48-.79,3.51c-.53,1.03-1.28,1.81-2.25,2.34-.97.53-2.01.8-3.13.8-1.21,0-2.3-.29-3.26-.88-.96-.59-1.68-1.39-2.17-2.4-.49-1.02-.74-2.09-.74-3.22ZM218.84,84.75c0,1.55.42,2.78,1.26,3.67.84.89,1.89,1.34,3.16,1.34s2.35-.45,3.18-1.35c.83-.9,1.25-2.18,1.25-3.84,0-1.05-.18-1.96-.53-2.75-.36-.78-.88-1.39-1.56-1.82-.69-.43-1.46-.65-2.31-.65-1.21,0-2.25.42-3.13,1.24-.87.83-1.31,2.21-1.31,4.15Z"/>
    <path class="cls-2" d="M245.81,86.48l1.72.43c-.36,1.4-1,2.47-1.93,3.21-.93.74-2.06,1.11-3.4,1.11s-2.51-.28-3.38-.85c-.87-.57-1.53-1.39-1.98-2.46-.45-1.07-.68-2.23-.68-3.46,0-1.34.26-2.52.77-3.52.51-1,1.24-1.76,2.19-2.28.95-.52,1.99-.78,3.12-.78,1.29,0,2.37.33,3.25.99.88.66,1.49,1.58,1.83,2.78l-1.69.4c-.3-.94-.73-1.62-1.3-2.05-.57-.43-1.28-.64-2.14-.64-.99,0-1.81.24-2.48.71-.66.47-1.13,1.11-1.4,1.91-.27.8-.4,1.62-.4,2.47,0,1.1.16,2.05.48,2.87.32.82.81,1.43,1.49,1.83.67.4,1.4.61,2.18.61.95,0,1.76-.28,2.42-.83.66-.55,1.11-1.37,1.34-2.45Z"/>
    <path class="cls-2" d="M249.09,84.73c0-2.14.58-3.82,1.73-5.03,1.15-1.21,2.64-1.82,4.46-1.82,1.19,0,2.26.28,3.22.85.96.57,1.69,1.36,2.19,2.38.5,1.02.75,2.17.75,3.46s-.26,2.48-.79,3.51c-.53,1.03-1.28,1.81-2.24,2.34-.97.53-2.01.8-3.13.8-1.21,0-2.3-.29-3.26-.88-.96-.59-1.68-1.39-2.17-2.4-.49-1.02-.74-2.09-.74-3.22ZM250.84,84.75c0,1.55.42,2.78,1.26,3.67.84.89,1.89,1.34,3.16,1.34s2.35-.45,3.18-1.35c.83-.9,1.25-2.18,1.25-3.84,0-1.05-.18-1.96-.53-2.75-.36-.78-.88-1.39-1.56-1.82-.69-.43-1.46-.65-2.31-.65-1.21,0-2.25.42-3.13,1.24-.87.83-1.31,2.21-1.31,4.15Z"/>
    <path class="cls-2" d="M263.62,91.01v-12.91h1.74l6.82,10.15v-10.15h1.62v12.91h-1.74l-6.82-10.15v10.15h-1.62Z"/>
    <path class="cls-2" d="M279.9,91.01v-11.37h-4.25v-1.53h10.22v1.53h-4.25v11.37h-1.72Z"/>
    <path class="cls-2" d="M287.68,91.01v-12.91h5.71c1.14,0,2.01.12,2.61.35.59.23,1.07.64,1.43,1.23.36.59.53,1.24.53,1.95,0,.92-.29,1.69-.88,2.32-.59.63-1.5,1.03-2.73,1.2.45.22.79.43,1.03.64.5.45.97,1.03,1.41,1.71l2.22,3.5h-2.13l-1.7-2.67c-.5-.77-.91-1.36-1.23-1.77-.32-.41-.61-.7-.86-.86-.25-.17-.51-.28-.77-.35-.19-.04-.51-.06-.95-.06h-1.97v5.72h-1.72ZM289.4,83.82h3.65c.78,0,1.38-.08,1.82-.24.44-.16.77-.42,1-.78.23-.36.34-.74.34-1.16,0-.61-.22-1.12-.66-1.51-.44-.39-1.14-.59-2.09-.59h-4.06v4.28Z"/>
    <path class="cls-2" d="M300.09,84.73c0-2.14.58-3.82,1.73-5.03,1.15-1.21,2.64-1.82,4.46-1.82,1.19,0,2.26.28,3.22.85.96.57,1.69,1.36,2.19,2.38.5,1.02.75,2.17.75,3.46s-.26,2.48-.79,3.51c-.53,1.03-1.28,1.81-2.24,2.34-.97.53-2.01.8-3.13.8-1.21,0-2.3-.29-3.26-.88-.96-.59-1.68-1.39-2.17-2.4-.49-1.02-.74-2.09-.74-3.22ZM301.84,84.75c0,1.55.42,2.78,1.26,3.67.84.89,1.89,1.34,3.16,1.34s2.35-.45,3.18-1.35c.83-.9,1.25-2.18,1.25-3.84,0-1.05-.18-1.96-.53-2.75-.36-.78-.88-1.39-1.56-1.82-.69-.43-1.46-.65-2.31-.65-1.21,0-2.25.42-3.13,1.24-.87.83-1.31,2.21-1.31,4.15Z"/>
    <path class="cls-2" d="M314.55,91.01v-12.91h1.72v11.38h6.31v1.53h-8.03Z"/>
    <path class="cls-2" d="M332.24,91.01v-11.37h-4.25v-1.53h10.22v1.53h-4.25v11.37h-1.72Z"/>
    <path class="cls-2" d="M340.02,91.01v-12.91h1.72v5.28h6.69v-5.28h1.72v12.91h-1.72v-6.09h-6.69v6.09h-1.72Z"/>
    <path class="cls-2" d="M353.02,91.01v-12.91h9.28v1.53h-7.56v3.94h7.09v1.53h-7.09v4.38h7.87v1.53h-9.59Z"/>
    <path class="cls-2" d="M369.96,91.01v-12.91h4.87c.86,0,1.51.04,1.96.12.63.11,1.16.31,1.59.6.43.3.77.71,1.03,1.25.26.53.39,1.12.39,1.76,0,1.1-.35,2.03-1.04,2.79-.7.76-1.96,1.14-3.78,1.14h-3.3v5.25h-1.72ZM371.68,84.23h3.33c1.1,0,1.88-.2,2.35-.61.46-.41.7-.98.7-1.73,0-.54-.14-1-.41-1.38-.27-.38-.63-.63-1.08-.76-.29-.08-.82-.11-1.59-.11h-3.3v4.59Z"/>
    <path class="cls-2" d="M381.44,84.73c0-2.14.58-3.82,1.73-5.03,1.15-1.21,2.64-1.82,4.45-1.82,1.19,0,2.26.28,3.22.85.96.57,1.69,1.36,2.19,2.38.5,1.02.75,2.17.75,3.46s-.26,2.48-.79,3.51c-.53,1.03-1.28,1.81-2.24,2.34-.97.53-2.01.8-3.13.8-1.21,0-2.3-.29-3.26-.88-.96-.59-1.68-1.39-2.17-2.4-.49-1.02-.74-2.09-.74-3.22ZM383.19,84.75c0,1.55.42,2.78,1.26,3.67.84.89,1.89,1.34,3.16,1.34s2.35-.45,3.18-1.35c.83-.9,1.25-2.18,1.25-3.84,0-1.05-.18-1.96-.53-2.75-.36-.78-.88-1.39-1.56-1.82-.69-.43-1.46-.65-2.31-.65-1.21,0-2.25.42-3.13,1.24-.87.83-1.31,2.21-1.31,4.15Z"/>
    <path class="cls-2" d="M398.18,91.01l-3.37-12.91h1.78l1.93,8.47c.22.88.41,1.76.56,2.63.33-1.37.53-2.16.59-2.37l2.46-8.73h2.06l1.83,6.54c.46,1.62.79,3.14,1,4.56.17-.81.39-1.74.64-2.8l2.03-8.3h1.71l-3.53,12.91h-1.68l-2.68-9.83c-.22-.82-.36-1.33-.41-1.52-.15.61-.28,1.12-.39,1.54l-2.73,9.81h-1.81Z"/>
    <path class="cls-2" d="M413.02,91.01v-12.91h9.28v1.53h-7.56v3.94h7.09v1.53h-7.09v4.38h7.88v1.53h-9.59Z"/>
    <path class="cls-2" d="M425.03,91.01v-12.91h5.71c1.14,0,2.01.12,2.61.35.59.23,1.07.64,1.43,1.23.36.59.53,1.24.53,1.95,0,.92-.29,1.69-.88,2.32-.59.63-1.5,1.03-2.73,1.2.45.22.79.43,1.03.64.5.45.97,1.03,1.41,1.71l2.22,3.5h-2.13l-1.7-2.67c-.5-.77-.91-1.36-1.23-1.77-.32-.41-.61-.7-.86-.86-.25-.17-.51-.28-.77-.35-.19-.04-.51-.06-.95-.06h-1.97v5.72h-1.72ZM426.75,83.82h3.65c.78,0,1.38-.08,1.82-.24.44-.16.77-.42,1-.78.23-.36.34-.74.34-1.16,0-.61-.22-1.12-.66-1.51-.44-.39-1.14-.59-2.09-.59h-4.06v4.28Z"/>
  </g>
</svg>